{
    "asset" : {
        "generator" : "Khronos glTF Blender I/O v1.4.40",
        "version" : "2.0"
    },
    "scene" : 0,
    "scenes" : [
        {
            "name" : "Scene",
            "nodes" : [
                0,
                1,
                2,
                3,
                4,
                5,
                6
            ]
        }
    ],
    "nodes" : [
        {
            "name" : "Camera",
            "rotation" : [
                -0.48788002133369446,
                0.08474661409854889,
                -0.04765099659562111,
                -0.8674793839454651
            ],
            "translation" : [
                -17.01523208618164,
                58.39875030517578,
                92.07817077636719
            ]
        },
        {
            "name" : "Area",
            "scale" : [
                35.457008361816406,
                33.617000579833984,
                25.644132614135742
            ],
            "translation" : [
                0,
                24.383544921875,
                0
            ]
        },
        {
            "name" : "Area.001",
            "rotation" : [
                -0.5003376603126526,
                -0.2633768320083618,
                -0.1629825085401535,
                0.80853670835495
            ],
            "scale" : [
                18.888866424560547,
                18.888866424560547,
                18.88886070251465
            ],
            "translation" : [
                67.75273132324219,
                44.33222198486328,
                -91.0052261352539
            ]
        },
        {
            "name" : "Area.002",
            "rotation" : [
                -0.22622226178646088,
                -0.769778311252594,
                -0.46435993909835815,
                0.37501293420791626
            ],
            "scale" : [
                18.888866424560547,
                18.888866424560547,
                18.88886070251465
            ],
            "translation" : [
                45.041988372802734,
                28.847728729248047,
                33.50746154785156
            ]
        },
        {
            "name" : "Area.003",
            "rotation" : [
                0.46722611784935,
                -0.3796960413455963,
                -0.23222249746322632,
                -0.763939380645752
            ],
            "scale" : [
                18.888866424560547,
                18.888866424560547,
                18.88886070251465
            ],
            "translation" : [
                -53.251075744628906,
                44.33222198486328,
                -42.65486145019531
            ]
        },
        {
            "name" : "Area.004",
            "rotation" : [
                0.19630169868469238,
                -0.7904143333435059,
                -0.48341822624206543,
                -0.32096365094184875
            ],
            "scale" : [
                18.888866424560547,
                18.888866424560547,
                18.88886070251465
            ],
            "translation" : [
                -81.57373046875,
                44.33222198486328,
                75.84288787841797
            ]
        },
        {
            "mesh" : 0,
            "name" : "Flower3_3",
            "scale" : [
                1.1937644481658936,
                1.1937644481658936,
                1.1937644481658936
            ],
            "translation" : [
                7.666045188903809,
                -0.033947207033634186,
                20.024585723876953
            ]
        }
    ],
    "materials" : [
        {
            "doubleSided" : true,
            "name" : "Flower3_3",
            "pbrMetallicRoughness" : {
                "baseColorFactor" : [
                    0.27678751945495605,
                    0.5453007817268372,
                    0.06217733770608902,
                    1
                ],
                "metallicFactor" : 0,
                "roughnessFactor" : 0.5
            }
        },
        {
            "doubleSided" : true,
            "name" : "Flower3_1",
            "pbrMetallicRoughness" : {
                "baseColorFactor" : [
                    0.800000011920929,
                    0.800000011920929,
                    0.800000011920929,
                    1
                ],
                "metallicFactor" : 0,
                "roughnessFactor" : 0.5
            }
        },
        {
            "doubleSided" : true,
            "name" : "Flower3_2",
            "pbrMetallicRoughness" : {
                "baseColorFactor" : [
                    0.8000000715255737,
                    0.3018703758716583,
                    0.06568038463592529,
                    1
                ],
                "metallicFactor" : 0,
                "roughnessFactor" : 0.5
            }
        }
    ],
    "meshes" : [
        {
            "name" : "Cube.018",
            "primitives" : [
                {
                    "attributes" : {
                        "POSITION" : 0,
                        "NORMAL" : 1,
                        "TEXCOORD_0" : 2
                    },
                    "indices" : 3,
                    "material" : 0
                },
                {
                    "attributes" : {
                        "POSITION" : 4,
                        "NORMAL" : 5,
                        "TEXCOORD_0" : 6
                    },
                    "indices" : 7,
                    "material" : 1
                },
                {
                    "attributes" : {
                        "POSITION" : 8,
                        "NORMAL" : 9,
                        "TEXCOORD_0" : 10
                    },
                    "indices" : 11,
                    "material" : 2
                }
            ]
        }
    ],
    "accessors" : [
        {
            "bufferView" : 0,
            "componentType" : 5126,
            "count" : 208,
            "max" : [
                0.23962129652500153,
                0.5839076638221741,
                0.12419097870588303
            ],
            "min" : [
                -0.25205186009407043,
                -0.006160948425531387,
                -0.14523300528526306
            ],
            "type" : "VEC3"
        },
        {
            "bufferView" : 1,
            "componentType" : 5126,
            "count" : 208,
            "type" : "VEC3"
        },
        {
            "bufferView" : 2,
            "componentType" : 5126,
            "count" : 208,
            "type" : "VEC2"
        },
        {
            "bufferView" : 3,
            "componentType" : 5123,
            "count" : 312,
            "type" : "SCALAR"
        },
        {
            "bufferView" : 4,
            "componentType" : 5126,
            "count" : 1296,
            "max" : [
                0.3509119153022766,
                0.6515012383460999,
                0.24364767968654633
            ],
            "min" : [
                -0.35539311170578003,
                0.396216481924057,
                -0.27261871099472046
            ],
            "type" : "VEC3"
        },
        {
            "bufferView" : 5,
            "componentType" : 5126,
            "count" : 1296,
            "type" : "VEC3"
        },
        {
            "bufferView" : 6,
            "componentType" : 5126,
            "count" : 1296,
            "type" : "VEC2"
        },
        {
            "bufferView" : 7,
            "componentType" : 5123,
            "count" : 1296,
            "type" : "SCALAR"
        },
        {
            "bufferView" : 8,
            "componentType" : 5126,
            "count" : 192,
            "max" : [
                0.26052334904670715,
                0.608421802520752,
                0.13948313891887665
            ],
            "min" : [
                -0.27302512526512146,
                0.40146011114120483,
                -0.16914039850234985
            ],
            "type" : "VEC3"
        },
        {
            "bufferView" : 9,
            "componentType" : 5126,
            "count" : 192,
            "type" : "VEC3"
        },
        {
            "bufferView" : 10,
            "componentType" : 5126,
            "count" : 192,
            "type" : "VEC2"
        },
        {
            "bufferView" : 11,
            "componentType" : 5123,
            "count" : 192,
            "type" : "SCALAR"
        }
    ],
    "bufferViews" : [
        {
            "buffer" : 0,
            "byteLength" : 2496,
            "byteOffset" : 0
        },
        {
            "buffer" : 0,
            "byteLength" : 2496,
            "byteOffset" : 2496
        },
        {
            "buffer" : 0,
            "byteLength" : 1664,
            "byteOffset" : 4992
        },
        {
            "buffer" : 0,
            "byteLength" : 624,
            "byteOffset" : 6656
        },
        {
            "buffer" : 0,
            "byteLength" : 15552,
            "byteOffset" : 7280
        },
        {
            "buffer" : 0,
            "byteLength" : 15552,
            "byteOffset" : 22832
        },
        {
            "buffer" : 0,
            "byteLength" : 10368,
            "byteOffset" : 38384
        },
        {
            "buffer" : 0,
            "byteLength" : 2592,
            "byteOffset" : 48752
        },
        {
            "buffer" : 0,
            "byteLength" : 2304,
            "byteOffset" : 51344
        },
        {
            "buffer" : 0,
            "byteLength" : 2304,
            "byteOffset" : 53648
        },
        {
            "buffer" : 0,
            "byteLength" : 1536,
            "byteOffset" : 55952
        },
        {
            "buffer" : 0,
            "byteLength" : 384,
            "byteOffset" : 57488
        }
    ],
    "buffers" : [
        {
            "byteLength" : 57872,
            "uri" : "data:application/octet-stream;base64,"
        }
    ]
}
