{
    "asset" : {
        "generator" : "Khronos glTF Blender I/O v1.4.40",
        "version" : "2.0"
    },
    "scene" : 0,
    "scenes" : [
        {
            "name" : "Scene",
            "nodes" : [
                0,
                1,
                2,
                3,
                4,
                5,
                6
            ]
        }
    ],
    "nodes" : [
        {
            "name" : "Camera",
            "rotation" : [
                -0.48788002133369446,
                0.08474661409854889,
                -0.04765099659562111,
                -0.8674793839454651
            ],
            "translation" : [
                -17.01523208618164,
                58.39875030517578,
                92.07817077636719
            ]
        },
        {
            "name" : "Area",
            "scale" : [
                35.457008361816406,
                33.617000579833984,
                25.644132614135742
            ],
            "translation" : [
                0,
                24.383544921875,
                0
            ]
        },
        {
            "name" : "Area.001",
            "rotation" : [
                -0.5003376603126526,
                -0.2633768320083618,
                -0.1629825085401535,
                0.80853670835495
            ],
            "scale" : [
                18.888866424560547,
                18.888866424560547,
                18.88886070251465
            ],
            "translation" : [
                67.75273132324219,
                44.33222198486328,
                -91.0052261352539
            ]
        },
        {
            "name" : "Area.002",
            "rotation" : [
                -0.22622226178646088,
                -0.769778311252594,
                -0.46435993909835815,
                0.37501293420791626
            ],
            "scale" : [
                18.888866424560547,
                18.888866424560547,
                18.88886070251465
            ],
            "translation" : [
                45.041988372802734,
                28.847728729248047,
                33.50746154785156
            ]
        },
        {
            "name" : "Area.003",
            "rotation" : [
                0.46722611784935,
                -0.3796960413455963,
                -0.23222249746322632,
                -0.763939380645752
            ],
            "scale" : [
                18.888866424560547,
                18.888866424560547,
                18.88886070251465
            ],
            "translation" : [
                -53.251075744628906,
                44.33222198486328,
                -42.65486145019531
            ]
        },
        {
            "name" : "Area.004",
            "rotation" : [
                0.19630169868469238,
                -0.7904143333435059,
                -0.48341822624206543,
                -0.32096365094184875
            ],
            "scale" : [
                18.888866424560547,
                18.888866424560547,
                18.88886070251465
            ],
            "translation" : [
                -81.57373046875,
                44.33222198486328,
                75.84288787841797
            ]
        },
        {
            "mesh" : 0,
            "name" : "Grass7",
            "scale" : [
                1.1937644481658936,
                1.1937644481658936,
                1.1937644481658936
            ],
            "translation" : [
                18.82822036743164,
                -0.03556608408689499,
                20.015399932861328
            ]
        }
    ],
    "materials" : [
        {
            "doubleSided" : true,
            "name" : "Grass1_1",
            "pbrMetallicRoughness" : {
                "baseColorFactor" : [
                    0.39042916893959045,
                    0.5888642072677612,
                    0.14010325074195862,
                    1
                ],
                "metallicFactor" : 0,
                "roughnessFactor" : 0.5
            }
        }
    ],
    "meshes" : [
        {
            "name" : "Cone.044",
            "primitives" : [
                {
                    "attributes" : {
                        "POSITION" : 0,
                        "NORMAL" : 1,
                        "TEXCOORD_0" : 2
                    },
                    "indices" : 3,
                    "material" : 0
                }
            ]
        }
    ],
    "accessors" : [
        {
            "bufferView" : 0,
            "componentType" : 5126,
            "count" : 576,
            "max" : [
                0.4061371386051178,
                0.8213858008384705,
                0.45031484961509705
            ],
            "min" : [
                -0.6266035437583923,
                -0.01892305351793766,
                -0.368417352437973
            ],
            "type" : "VEC3"
        },
        {
            "bufferView" : 1,
            "componentType" : 5126,
            "count" : 576,
            "type" : "VEC3"
        },
        {
            "bufferView" : 2,
            "componentType" : 5126,
            "count" : 576,
            "type" : "VEC2"
        },
        {
            "bufferView" : 3,
            "componentType" : 5123,
            "count" : 756,
            "type" : "SCALAR"
        }
    ],
    "bufferViews" : [
        {
            "buffer" : 0,
            "byteLength" : 6912,
            "byteOffset" : 0
        },
        {
            "buffer" : 0,
            "byteLength" : 6912,
            "byteOffset" : 6912
        },
        {
            "buffer" : 0,
            "byteLength" : 4608,
            "byteOffset" : 13824
        },
        {
            "buffer" : 0,
            "byteLength" : 1512,
            "byteOffset" : 18432
        }
    ],
    "buffers" : [
        {
            "byteLength" : 19944,
            "uri" : "data:application/octet-stream;base64,"
        }
    ]
}
