{
    "asset" : {
        "generator" : "Khronos glTF Blender I/O v1.4.40",
        "version" : "2.0"
    },
    "scene" : 0,
    "scenes" : [
        {
            "name" : "Scene",
            "nodes" : [
                0,
                1,
                2,
                3,
                4,
                5,
                6
            ]
        }
    ],
    "nodes" : [
        {
            "name" : "Camera",
            "rotation" : [
                -0.48788002133369446,
                0.08474661409854889,
                -0.04765099659562111,
                -0.8674793839454651
            ],
            "translation" : [
                -17.01523208618164,
                58.39875030517578,
                92.07817077636719
            ]
        },
        {
            "name" : "Area",
            "scale" : [
                35.457008361816406,
                33.617000579833984,
                25.644132614135742
            ],
            "translation" : [
                0,
                24.383544921875,
                0
            ]
        },
        {
            "name" : "Area.001",
            "rotation" : [
                -0.5003376603126526,
                -0.2633768320083618,
                -0.1629825085401535,
                0.80853670835495
            ],
            "scale" : [
                18.888866424560547,
                18.888866424560547,
                18.88886070251465
            ],
            "translation" : [
                67.75273132324219,
                44.33222198486328,
                -91.0052261352539
            ]
        },
        {
            "name" : "Area.002",
            "rotation" : [
                -0.22622226178646088,
                -0.769778311252594,
                -0.46435993909835815,
                0.37501293420791626
            ],
            "scale" : [
                18.888866424560547,
                18.888866424560547,
                18.88886070251465
            ],
            "translation" : [
                45.041988372802734,
                28.847728729248047,
                33.50746154785156
            ]
        },
        {
            "name" : "Area.003",
            "rotation" : [
                0.46722611784935,
                -0.3796960413455963,
                -0.23222249746322632,
                -0.763939380645752
            ],
            "scale" : [
                18.888866424560547,
                18.888866424560547,
                18.88886070251465
            ],
            "translation" : [
                -53.251075744628906,
                44.33222198486328,
                -42.65486145019531
            ]
        },
        {
            "name" : "Area.004",
            "rotation" : [
                0.19630169868469238,
                -0.7904143333435059,
                -0.48341822624206543,
                -0.32096365094184875
            ],
            "scale" : [
                18.888866424560547,
                18.888866424560547,
                18.88886070251465
            ],
            "translation" : [
                -81.57373046875,
                44.33222198486328,
                75.84288787841797
            ]
        },
        {
            "mesh" : 0,
            "name" : "House",
            "translation" : [
                -35.73231506347656,
                9.131450653076172,
                -2.221179485321045
            ]
        }
    ],
    "materials" : [
        {
            "doubleSided" : true,
            "name" : "House1_2",
            "pbrMetallicRoughness" : {
                "baseColorFactor" : [
                    0.18071815371513367,
                    0.15155315399169922,
                    0.13827857375144958,
                    1
                ],
                "metallicFactor" : 0,
                "roughnessFactor" : 0.5
            }
        },
        {
            "doubleSided" : true,
            "name" : "House1_1",
            "pbrMetallicRoughness" : {
                "baseColorFactor" : [
                    0.4835855960845947,
                    0.3843816816806793,
                    0.25784313678741455,
                    1
                ],
                "metallicFactor" : 0,
                "roughnessFactor" : 0.5
            }
        },
        {
            "doubleSided" : true,
            "name" : "House1_4",
            "pbrMetallicRoughness" : {
                "baseColorFactor" : [
                    0.19599086046218872,
                    0.1095447987318039,
                    0.07546589523553848,
                    1
                ],
                "metallicFactor" : 0,
                "roughnessFactor" : 0.5
            }
        },
        {
            "doubleSided" : true,
            "name" : "House1_3",
            "pbrMetallicRoughness" : {
                "baseColorFactor" : [
                    0.2786079943180084,
                    0.1541282683610916,
                    0.10533011704683304,
                    1
                ],
                "metallicFactor" : 0,
                "roughnessFactor" : 0.5
            }
        },
        {
            "doubleSided" : true,
            "name" : "House1_7",
            "pbrMetallicRoughness" : {
                "baseColorFactor" : [
                    0.6113813519477844,
                    0.141166090965271,
                    0.10252562910318375,
                    1
                ],
                "metallicFactor" : 0,
                "roughnessFactor" : 0.5
            }
        },
        {
            "doubleSided" : true,
            "name" : "House1_5",
            "pbrMetallicRoughness" : {
                "baseColorFactor" : [
                    0.13286562263965607,
                    0.07525201886892319,
                    0.05237797647714615,
                    1
                ],
                "metallicFactor" : 0,
                "roughnessFactor" : 0.5
            }
        },
        {
            "doubleSided" : true,
            "emissiveFactor" : [
                0.5242483615875244,
                0.3588481843471527,
                0.03560791537165642
            ],
            "name" : "House1_6",
            "pbrMetallicRoughness" : {
                "baseColorFactor" : [
                    0.8000000715255737,
                    0.5300950407981873,
                    0.12423242628574371,
                    1
                ],
                "metallicFactor" : 0,
                "roughnessFactor" : 0.5
            }
        }
    ],
    "meshes" : [
        {
            "name" : "Cube.063",
            "primitives" : [
                {
                    "attributes" : {
                        "POSITION" : 0,
                        "NORMAL" : 1,
                        "TEXCOORD_0" : 2
                    },
                    "indices" : 3,
                    "material" : 0
                },
                {
                    "attributes" : {
                        "POSITION" : 4,
                        "NORMAL" : 5,
                        "TEXCOORD_0" : 6
                    },
                    "indices" : 7,
                    "material" : 1
                },
                {
                    "attributes" : {
                        "POSITION" : 8,
                        "NORMAL" : 9,
                        "TEXCOORD_0" : 10
                    },
                    "indices" : 11,
                    "material" : 2
                },
                {
                    "attributes" : {
                        "POSITION" : 12,
                        "NORMAL" : 13,
                        "TEXCOORD_0" : 14
                    },
                    "indices" : 15,
                    "material" : 3
                },
                {
                    "attributes" : {
                        "POSITION" : 16,
                        "NORMAL" : 17,
                        "TEXCOORD_0" : 18
                    },
                    "indices" : 19,
                    "material" : 4
                },
                {
                    "attributes" : {
                        "POSITION" : 20,
                        "NORMAL" : 21,
                        "TEXCOORD_0" : 22
                    },
                    "indices" : 23,
                    "material" : 5
                },
                {
                    "attributes" : {
                        "POSITION" : 24,
                        "NORMAL" : 25,
                        "TEXCOORD_0" : 26
                    },
                    "indices" : 27,
                    "material" : 6
                }
            ]
        }
    ],
    "accessors" : [
        {
            "bufferView" : 0,
            "componentType" : 5126,
            "count" : 254,
            "max" : [
                4.164100646972656,
                12.299881935119629,
                7.098773956298828
            ],
            "min" : [
                -4.150725364685059,
                -0.031637921929359436,
                -6.812575340270996
            ],
            "type" : "VEC3"
        },
        {
            "bufferView" : 1,
            "componentType" : 5126,
            "count" : 254,
            "type" : "VEC3"
        },
        {
            "bufferView" : 2,
            "componentType" : 5126,
            "count" : 254,
            "type" : "VEC2"
        },
        {
            "bufferView" : 3,
            "componentType" : 5123,
            "count" : 381,
            "type" : "SCALAR"
        },
        {
            "bufferView" : 4,
            "componentType" : 5126,
            "count" : 56,
            "max" : [
                3.879202365875244,
                9.941778182983398,
                5.56019926071167
            ],
            "min" : [
                -3.8658268451690674,
                0.6845482587814331,
                -6.589707374572754
            ],
            "type" : "VEC3"
        },
        {
            "bufferView" : 5,
            "componentType" : 5126,
            "count" : 56,
            "type" : "VEC3"
        },
        {
            "bufferView" : 6,
            "componentType" : 5126,
            "count" : 56,
            "type" : "VEC2"
        },
        {
            "bufferView" : 7,
            "componentType" : 5123,
            "count" : 75,
            "type" : "SCALAR"
        },
        {
            "bufferView" : 8,
            "componentType" : 5126,
            "count" : 606,
            "max" : [
                4.885295867919922,
                11.159605979919434,
                6.450678825378418
            ],
            "min" : [
                -4.8652262687683105,
                0.6874175667762756,
                -7.364117622375488
            ],
            "type" : "VEC3"
        },
        {
            "bufferView" : 9,
            "componentType" : 5126,
            "count" : 606,
            "type" : "VEC3"
        },
        {
            "bufferView" : 10,
            "componentType" : 5126,
            "count" : 606,
            "type" : "VEC2"
        },
        {
            "bufferView" : 11,
            "componentType" : 5123,
            "count" : 660,
            "type" : "SCALAR"
        },
        {
            "bufferView" : 12,
            "componentType" : 5126,
            "count" : 2987,
            "max" : [
                4.360146999359131,
                10.824931144714355,
                8.289008140563965
            ],
            "min" : [
                -4.329471111297607,
                -0.011893770657479763,
                -9.238049507141113
            ],
            "type" : "VEC3"
        },
        {
            "bufferView" : 13,
            "componentType" : 5126,
            "count" : 2987,
            "type" : "VEC3"
        },
        {
            "bufferView" : 14,
            "componentType" : 5126,
            "count" : 2987,
            "type" : "VEC2"
        },
        {
            "bufferView" : 15,
            "componentType" : 5123,
            "count" : 3222,
            "type" : "SCALAR"
        },
        {
            "bufferView" : 16,
            "componentType" : 5126,
            "count" : 848,
            "max" : [
                4.623760223388672,
                10.57845687866211,
                5.553200721740723
            ],
            "min" : [
                -4.600228309631348,
                5.362223148345947,
                -6.279236316680908
            ],
            "type" : "VEC3"
        },
        {
            "bufferView" : 17,
            "componentType" : 5126,
            "count" : 848,
            "type" : "VEC3"
        },
        {
            "bufferView" : 18,
            "componentType" : 5126,
            "count" : 848,
            "type" : "VEC2"
        },
        {
            "bufferView" : 19,
            "componentType" : 5123,
            "count" : 888,
            "type" : "SCALAR"
        },
        {
            "bufferView" : 20,
            "componentType" : 5126,
            "count" : 336,
            "max" : [
                -0.40333786606788635,
                2.2043306827545166,
                5.8083176612854
            ],
            "min" : [
                -0.765752375125885,
                1.8419160842895508,
                5.445902347564697
            ],
            "type" : "VEC3"
        },
        {
            "bufferView" : 21,
            "componentType" : 5126,
            "count" : 336,
            "type" : "VEC3"
        },
        {
            "bufferView" : 22,
            "componentType" : 5126,
            "count" : 336,
            "type" : "VEC2"
        },
        {
            "bufferView" : 23,
            "componentType" : 5123,
            "count" : 336,
            "type" : "SCALAR"
        },
        {
            "bufferView" : 24,
            "componentType" : 5126,
            "count" : 126,
            "max" : [
                3.9075982570648193,
                4.304321765899658,
                3.277475595474243
            ],
            "min" : [
                -3.915189504623413,
                2.903928279876709,
                -4.1702399253845215
            ],
            "type" : "VEC3"
        },
        {
            "bufferView" : 25,
            "componentType" : 5126,
            "count" : 126,
            "type" : "VEC3"
        },
        {
            "bufferView" : 26,
            "componentType" : 5126,
            "count" : 126,
            "type" : "VEC2"
        },
        {
            "bufferView" : 27,
            "componentType" : 5123,
            "count" : 144,
            "type" : "SCALAR"
        }
    ],
    "bufferViews" : [
        {
            "buffer" : 0,
            "byteLength" : 3048,
            "byteOffset" : 0
        },
        {
            "buffer" : 0,
            "byteLength" : 3048,
            "byteOffset" : 3048
        },
        {
            "buffer" : 0,
            "byteLength" : 2032,
            "byteOffset" : 6096
        },
        {
            "buffer" : 0,
            "byteLength" : 762,
            "byteOffset" : 8128
        },
        {
            "buffer" : 0,
            "byteLength" : 672,
            "byteOffset" : 8892
        },
        {
            "buffer" : 0,
            "byteLength" : 672,
            "byteOffset" : 9564
        },
        {
            "buffer" : 0,
            "byteLength" : 448,
            "byteOffset" : 10236
        },
        {
            "buffer" : 0,
            "byteLength" : 150,
            "byteOffset" : 10684
        },
        {
            "buffer" : 0,
            "byteLength" : 7272,
            "byteOffset" : 10836
        },
        {
            "buffer" : 0,
            "byteLength" : 7272,
            "byteOffset" : 18108
        },
        {
            "buffer" : 0,
            "byteLength" : 4848,
            "byteOffset" : 25380
        },
        {
            "buffer" : 0,
            "byteLength" : 1320,
            "byteOffset" : 30228
        },
        {
            "buffer" : 0,
            "byteLength" : 35844,
            "byteOffset" : 31548
        },
        {
            "buffer" : 0,
            "byteLength" : 35844,
            "byteOffset" : 67392
        },
        {
            "buffer" : 0,
            "byteLength" : 23896,
            "byteOffset" : 103236
        },
        {
            "buffer" : 0,
            "byteLength" : 6444,
            "byteOffset" : 127132
        },
        {
            "buffer" : 0,
            "byteLength" : 10176,
            "byteOffset" : 133576
        },
        {
            "buffer" : 0,
            "byteLength" : 10176,
            "byteOffset" : 143752
        },
        {
            "buffer" : 0,
            "byteLength" : 6784,
            "byteOffset" : 153928
        },
        {
            "buffer" : 0,
            "byteLength" : 1776,
            "byteOffset" : 160712
        },
        {
            "buffer" : 0,
            "byteLength" : 4032,
            "byteOffset" : 162488
        },
        {
            "buffer" : 0,
            "byteLength" : 4032,
            "byteOffset" : 166520
        },
        {
            "buffer" : 0,
            "byteLength" : 2688,
            "byteOffset" : 170552
        },
        {
            "buffer" : 0,
            "byteLength" : 672,
            "byteOffset" : 173240
        },
        {
            "buffer" : 0,
            "byteLength" : 1512,
            "byteOffset" : 173912
        },
        {
            "buffer" : 0,
            "byteLength" : 1512,
            "byteOffset" : 175424
        },
        {
            "buffer" : 0,
            "byteLength" : 1008,
            "byteOffset" : 176936
        },
        {
            "buffer" : 0,
            "byteLength" : 288,
            "byteOffset" : 177944
        }
    ],
    "buffers" : [
        {
            "byteLength" : 178232,
            "uri" : "data:application/octet-stream;base64,"
        }
    ]
}
