{
    "asset" : {
        "generator" : "Khronos glTF Blender I/O v1.4.40",
        "version" : "2.0"
    },
    "scene" : 0,
    "scenes" : [
        {
            "name" : "Scene",
            "nodes" : [
                0,
                1,
                2,
                3,
                4,
                5,
                6,
                7,
                8
            ]
        }
    ],
    "nodes" : [
        {
            "name" : "Camera",
            "rotation" : [
                -0.48788002133369446,
                0.08474661409854889,
                -0.04765099659562111,
                -0.8674793839454651
            ],
            "translation" : [
                -17.01523208618164,
                58.39875030517578,
                92.07817077636719
            ]
        },
        {
            "name" : "Area",
            "scale" : [
                35.457008361816406,
                33.617000579833984,
                25.644132614135742
            ],
            "translation" : [
                0,
                24.383544921875,
                0
            ]
        },
        {
            "name" : "Area.001",
            "rotation" : [
                -0.5003376603126526,
                -0.2633768320083618,
                -0.1629825085401535,
                0.80853670835495
            ],
            "scale" : [
                18.888866424560547,
                18.888866424560547,
                18.88886070251465
            ],
            "translation" : [
                67.75273132324219,
                44.33222198486328,
                -91.0052261352539
            ]
        },
        {
            "name" : "Area.002",
            "rotation" : [
                -0.22622226178646088,
                -0.769778311252594,
                -0.46435993909835815,
                0.37501293420791626
            ],
            "scale" : [
                18.888866424560547,
                18.888866424560547,
                18.88886070251465
            ],
            "translation" : [
                45.041988372802734,
                28.847728729248047,
                33.50746154785156
            ]
        },
        {
            "name" : "Area.003",
            "rotation" : [
                0.46722611784935,
                -0.3796960413455963,
                -0.23222249746322632,
                -0.763939380645752
            ],
            "scale" : [
                18.888866424560547,
                18.888866424560547,
                18.88886070251465
            ],
            "translation" : [
                -53.251075744628906,
                44.33222198486328,
                -42.65486145019531
            ]
        },
        {
            "name" : "Area.004",
            "rotation" : [
                0.19630169868469238,
                -0.7904143333435059,
                -0.48341822624206543,
                -0.32096365094184875
            ],
            "scale" : [
                18.888866424560547,
                18.888866424560547,
                18.88886070251465
            ],
            "translation" : [
                -81.57373046875,
                44.33222198486328,
                75.84288787841797
            ]
        },
        {
            "mesh" : 0,
            "name" : "Mushroom2_2",
            "scale" : [
                1.1937644481658936,
                1.1937644481658936,
                1.1937644481658936
            ],
            "translation" : [
                3.985032320022583,
                -0.034467663615942,
                20.01470375061035
            ]
        },
        {
            "mesh" : 1,
            "name" : "Mushroom2_3",
            "scale" : [
                1.1937644481658936,
                1.1937644481658936,
                1.1937644481658936
            ],
            "translation" : [
                3.7804548740386963,
                -0.034467663615942,
                20.01470375061035
            ]
        },
        {
            "mesh" : 2,
            "name" : "Mushroom5_3",
            "rotation" : [
                0,
                0.26239341497421265,
                0,
                0.9649609923362732
            ],
            "scale" : [
                0.09935353696346283,
                0.1272115260362625,
                0.09935353696346283
            ],
            "translation" : [
                1.8988494873046875,
                -0.0877637267112732,
                19.770036697387695
            ]
        }
    ],
    "materials" : [
        {
            "doubleSided" : true,
            "name" : "Mushroom2_1",
            "pbrMetallicRoughness" : {
                "baseColorFactor" : [
                    0.7638229727745056,
                    0.7655965089797974,
                    0.5779070258140564,
                    1
                ],
                "metallicFactor" : 0,
                "roughnessFactor" : 0.5
            }
        },
        {
            "doubleSided" : true,
            "name" : "Mushroom2-2",
            "pbrMetallicRoughness" : {
                "baseColorFactor" : [
                    0.18826602399349213,
                    0.10929474979639053,
                    0.05581944063305855,
                    1
                ],
                "metallicFactor" : 0,
                "roughnessFactor" : 0.5
            }
        },
        {
            "doubleSided" : true,
            "name" : "Mushroom5_1",
            "pbrMetallicRoughness" : {
                "metallicFactor" : 0,
                "roughnessFactor" : 0.5
            }
        },
        {
            "doubleSided" : true,
            "name" : "Mushroom5_2",
            "pbrMetallicRoughness" : {
                "baseColorFactor" : [
                    0.8000000715255737,
                    0.03174296393990517,
                    0.024161627516150475,
                    1
                ],
                "metallicFactor" : 0,
                "roughnessFactor" : 0.5
            }
        }
    ],
    "meshes" : [
        {
            "name" : "Cube",
            "primitives" : [
                {
                    "attributes" : {
                        "POSITION" : 0,
                        "NORMAL" : 1,
                        "TEXCOORD_0" : 2
                    },
                    "indices" : 3,
                    "material" : 0
                },
                {
                    "attributes" : {
                        "POSITION" : 4,
                        "NORMAL" : 5,
                        "TEXCOORD_0" : 6
                    },
                    "indices" : 7,
                    "material" : 1
                }
            ]
        },
        {
            "name" : "Cube.005",
            "primitives" : [
                {
                    "attributes" : {
                        "POSITION" : 8,
                        "NORMAL" : 9,
                        "TEXCOORD_0" : 10
                    },
                    "indices" : 11,
                    "material" : 0
                },
                {
                    "attributes" : {
                        "POSITION" : 12,
                        "NORMAL" : 13,
                        "TEXCOORD_0" : 14
                    },
                    "indices" : 15,
                    "material" : 1
                }
            ]
        },
        {
            "name" : "Cylinder.058",
            "primitives" : [
                {
                    "attributes" : {
                        "POSITION" : 16,
                        "NORMAL" : 17,
                        "TEXCOORD_0" : 18
                    },
                    "indices" : 19,
                    "material" : 2
                },
                {
                    "attributes" : {
                        "POSITION" : 20,
                        "NORMAL" : 21,
                        "TEXCOORD_0" : 22
                    },
                    "indices" : 23,
                    "material" : 3
                }
            ]
        }
    ],
    "accessors" : [
        {
            "bufferView" : 0,
            "componentType" : 5126,
            "count" : 72,
            "max" : [
                0.016260407865047455,
                0.5276445746421814,
                0.00979829765856266
            ],
            "min" : [
                -0.0064029148779809475,
                0,
                -0.010458729229867458
            ],
            "type" : "VEC3"
        },
        {
            "bufferView" : 1,
            "componentType" : 5126,
            "count" : 72,
            "type" : "VEC3"
        },
        {
            "bufferView" : 2,
            "componentType" : 5126,
            "count" : 72,
            "type" : "VEC2"
        },
        {
            "bufferView" : 3,
            "componentType" : 5123,
            "count" : 108,
            "type" : "SCALAR"
        },
        {
            "bufferView" : 4,
            "componentType" : 5126,
            "count" : 240,
            "max" : [
                0.049174267798662186,
                0.6239755749702454,
                0.04162111133337021
            ],
            "min" : [
                -0.02999391034245491,
                0.46395182609558105,
                -0.04162111133337021
            ],
            "type" : "VEC3"
        },
        {
            "bufferView" : 5,
            "componentType" : 5126,
            "count" : 240,
            "type" : "VEC3"
        },
        {
            "bufferView" : 6,
            "componentType" : 5126,
            "count" : 240,
            "type" : "VEC2"
        },
        {
            "bufferView" : 7,
            "componentType" : 5123,
            "count" : 240,
            "type" : "SCALAR"
        },
        {
            "bufferView" : 8,
            "componentType" : 5126,
            "count" : 72,
            "max" : [
                0.01789904572069645,
                0.48911967873573303,
                0.011056898161768913
            ],
            "min" : [
                -0.03126326575875282,
                0,
                -0.01180216297507286
            ],
            "type" : "VEC3"
        },
        {
            "bufferView" : 9,
            "componentType" : 5126,
            "count" : 72,
            "type" : "VEC3"
        },
        {
            "bufferView" : 10,
            "componentType" : 5126,
            "count" : 72,
            "type" : "VEC2"
        },
        {
            "bufferView" : 11,
            "componentType" : 5123,
            "count" : 108,
            "type" : "SCALAR"
        },
        {
            "bufferView" : 12,
            "componentType" : 5126,
            "count" : 240,
            "max" : [
                0.054129790514707565,
                0.5784173011779785,
                0.04696737974882126
            ],
            "min" : [
                -0.03301653638482094,
                0.43007734417915344,
                -0.04696737974882126
            ],
            "type" : "VEC3"
        },
        {
            "bufferView" : 13,
            "componentType" : 5126,
            "count" : 240,
            "type" : "VEC3"
        },
        {
            "bufferView" : 14,
            "componentType" : 5126,
            "count" : 240,
            "type" : "VEC2"
        },
        {
            "bufferView" : 15,
            "componentType" : 5123,
            "count" : 240,
            "type" : "SCALAR"
        },
        {
            "bufferView" : 16,
            "componentType" : 5126,
            "count" : 1376,
            "max" : [
                3.424041986465454,
                12.082711219787598,
                3.7662131786346436
            ],
            "min" : [
                -4.526853561401367,
                -0.4479753375053406,
                -3.47190523147583
            ],
            "type" : "VEC3"
        },
        {
            "bufferView" : 17,
            "componentType" : 5126,
            "count" : 1376,
            "type" : "VEC3"
        },
        {
            "bufferView" : 18,
            "componentType" : 5126,
            "count" : 1376,
            "type" : "VEC2"
        },
        {
            "bufferView" : 19,
            "componentType" : 5123,
            "count" : 1608,
            "type" : "SCALAR"
        },
        {
            "bufferView" : 20,
            "componentType" : 5126,
            "count" : 480,
            "max" : [
                4.513905048370361,
                11.939085006713867,
                4.8091230392456055
            ],
            "min" : [
                -4.901733875274658,
                1.662934422492981,
                -4.729734420776367
            ],
            "type" : "VEC3"
        },
        {
            "bufferView" : 21,
            "componentType" : 5126,
            "count" : 480,
            "type" : "VEC3"
        },
        {
            "bufferView" : 22,
            "componentType" : 5126,
            "count" : 480,
            "type" : "VEC2"
        },
        {
            "bufferView" : 23,
            "componentType" : 5123,
            "count" : 480,
            "type" : "SCALAR"
        }
    ],
    "bufferViews" : [
        {
            "buffer" : 0,
            "byteLength" : 864,
            "byteOffset" : 0
        },
        {
            "buffer" : 0,
            "byteLength" : 864,
            "byteOffset" : 864
        },
        {
            "buffer" : 0,
            "byteLength" : 576,
            "byteOffset" : 1728
        },
        {
            "buffer" : 0,
            "byteLength" : 216,
            "byteOffset" : 2304
        },
        {
            "buffer" : 0,
            "byteLength" : 2880,
            "byteOffset" : 2520
        },
        {
            "buffer" : 0,
            "byteLength" : 2880,
            "byteOffset" : 5400
        },
        {
            "buffer" : 0,
            "byteLength" : 1920,
            "byteOffset" : 8280
        },
        {
            "buffer" : 0,
            "byteLength" : 480,
            "byteOffset" : 10200
        },
        {
            "buffer" : 0,
            "byteLength" : 864,
            "byteOffset" : 10680
        },
        {
            "buffer" : 0,
            "byteLength" : 864,
            "byteOffset" : 11544
        },
        {
            "buffer" : 0,
            "byteLength" : 576,
            "byteOffset" : 12408
        },
        {
            "buffer" : 0,
            "byteLength" : 216,
            "byteOffset" : 12984
        },
        {
            "buffer" : 0,
            "byteLength" : 2880,
            "byteOffset" : 13200
        },
        {
            "buffer" : 0,
            "byteLength" : 2880,
            "byteOffset" : 16080
        },
        {
            "buffer" : 0,
            "byteLength" : 1920,
            "byteOffset" : 18960
        },
        {
            "buffer" : 0,
            "byteLength" : 480,
            "byteOffset" : 20880
        },
        {
            "buffer" : 0,
            "byteLength" : 16512,
            "byteOffset" : 21360
        },
        {
            "buffer" : 0,
            "byteLength" : 16512,
            "byteOffset" : 37872
        },
        {
            "buffer" : 0,
            "byteLength" : 11008,
            "byteOffset" : 54384
        },
        {
            "buffer" : 0,
            "byteLength" : 3216,
            "byteOffset" : 65392
        },
        {
            "buffer" : 0,
            "byteLength" : 5760,
            "byteOffset" : 68608
        },
        {
            "buffer" : 0,
            "byteLength" : 5760,
            "byteOffset" : 74368
        },
        {
            "buffer" : 0,
            "byteLength" : 3840,
            "byteOffset" : 80128
        },
        {
            "buffer" : 0,
            "byteLength" : 960,
            "byteOffset" : 83968
        }
    ],
    "buffers" : [
        {
            "byteLength" : 84928,
            "uri" : "data:application/octet-stream;base64,"
        }
    ]
}
