{
    "asset" : {
        "generator" : "Khronos glTF Blender I/O v1.4.40",
        "version" : "2.0"
    },
    "scene" : 0,
    "scenes" : [
        {
            "name" : "Scene",
            "nodes" : [
                0,
                1,
                2,
                3,
                4,
                5,
                6,
                7,
                8,
                9
            ]
        }
    ],
    "nodes" : [
        {
            "name" : "Camera",
            "rotation" : [
                -0.48788002133369446,
                0.08474661409854889,
                -0.04765099659562111,
                -0.8674793839454651
            ],
            "translation" : [
                -17.01523208618164,
                58.39875030517578,
                92.07817077636719
            ]
        },
        {
            "name" : "Area",
            "scale" : [
                35.457008361816406,
                33.617000579833984,
                25.644132614135742
            ],
            "translation" : [
                0,
                24.383544921875,
                0
            ]
        },
        {
            "name" : "Area.001",
            "rotation" : [
                -0.5003376603126526,
                -0.2633768320083618,
                -0.1629825085401535,
                0.80853670835495
            ],
            "scale" : [
                18.888866424560547,
                18.888866424560547,
                18.88886070251465
            ],
            "translation" : [
                67.75273132324219,
                44.33222198486328,
                -91.0052261352539
            ]
        },
        {
            "name" : "Area.002",
            "rotation" : [
                -0.22622226178646088,
                -0.769778311252594,
                -0.46435993909835815,
                0.37501293420791626
            ],
            "scale" : [
                18.888866424560547,
                18.888866424560547,
                18.88886070251465
            ],
            "translation" : [
                45.041988372802734,
                28.847728729248047,
                33.50746154785156
            ]
        },
        {
            "name" : "Area.003",
            "rotation" : [
                0.46722611784935,
                -0.3796960413455963,
                -0.23222249746322632,
                -0.763939380645752
            ],
            "scale" : [
                18.888866424560547,
                18.888866424560547,
                18.88886070251465
            ],
            "translation" : [
                -53.251075744628906,
                44.33222198486328,
                -42.65486145019531
            ]
        },
        {
            "name" : "Area.004",
            "rotation" : [
                0.19630169868469238,
                -0.7904143333435059,
                -0.48341822624206543,
                -0.32096365094184875
            ],
            "scale" : [
                18.888866424560547,
                18.888866424560547,
                18.88886070251465
            ],
            "translation" : [
                -81.57373046875,
                44.33222198486328,
                75.84288787841797
            ]
        },
        {
            "mesh" : 0,
            "name" : "Tree3_3",
            "rotation" : [
                0,
                0.7658429145812988,
                0,
                0.6430277228355408
            ],
            "scale" : [
                0.23345045745372772,
                0.23345045745372772,
                0.23345045745372772
            ],
            "translation" : [
                5.5027923583984375,
                -0.08398467302322388,
                -6.93515682220459
            ]
        },
        {
            "mesh" : 1,
            "name" : "Tree3_2.001",
            "rotation" : [
                0,
                0.7086299657821655,
                0,
                0.7055802941322327
            ],
            "scale" : [
                0.31027036905288696,
                0.31027036905288696,
                0.31027036905288696
            ],
            "translation" : [
                6.611690044403076,
                -0.08776390552520752,
                -4.887694835662842
            ]
        },
        {
            "mesh" : 2,
            "name" : "Tree3_1.001",
            "rotation" : [
                0,
                0.7086299657821655,
                0,
                0.7055802941322327
            ],
            "scale" : [
                0.2796262204647064,
                0.2796262204647064,
                0.2796262204647064
            ],
            "translation" : [
                1.393648624420166,
                -0.7324877381324768,
                -9.061607360839844
            ]
        },
        {
            "mesh" : 3,
            "name" : "Tree3_4",
            "rotation" : [
                0,
                0.7086299657821655,
                0,
                0.7055802941322327
            ],
            "scale" : [
                0.20309731364250183,
                0.20309731364250183,
                0.20309731364250183
            ],
            "translation" : [
                5.396781921386719,
                -0.024909615516662598,
                -2.437558174133301
            ]
        }
    ],
    "materials" : [
        {
            "doubleSided" : true,
            "name" : "Tree3_1.001",
            "pbrMetallicRoughness" : {
                "baseColorFactor" : [
                    0.0637078806757927,
                    0.03880103677511215,
                    0.016990941017866135,
                    1
                ],
                "metallicFactor" : 0,
                "roughnessFactor" : 0.5
            }
        },
        {
            "doubleSided" : true,
            "name" : "Tree3_2.001",
            "pbrMetallicRoughness" : {
                "baseColorFactor" : [
                    0.025433937087655067,
                    0.15572208166122437,
                    0.00965164601802826,
                    1
                ],
                "metallicFactor" : 0,
                "roughnessFactor" : 0.5
            }
        }
    ],
    "meshes" : [
        {
            "name" : "Cylinder.024",
            "primitives" : [
                {
                    "attributes" : {
                        "POSITION" : 0,
                        "NORMAL" : 1,
                        "TEXCOORD_0" : 2
                    },
                    "indices" : 3,
                    "material" : 0
                },
                {
                    "attributes" : {
                        "POSITION" : 4,
                        "NORMAL" : 5,
                        "TEXCOORD_0" : 6
                    },
                    "indices" : 7,
                    "material" : 1
                }
            ]
        },
        {
            "name" : "Cylinder.025",
            "primitives" : [
                {
                    "attributes" : {
                        "POSITION" : 8,
                        "NORMAL" : 9,
                        "TEXCOORD_0" : 10
                    },
                    "indices" : 3,
                    "material" : 0
                },
                {
                    "attributes" : {
                        "POSITION" : 11,
                        "NORMAL" : 12,
                        "TEXCOORD_0" : 13
                    },
                    "indices" : 14,
                    "material" : 1
                }
            ]
        },
        {
            "name" : "Cylinder.028",
            "primitives" : [
                {
                    "attributes" : {
                        "POSITION" : 15,
                        "NORMAL" : 16,
                        "TEXCOORD_0" : 17
                    },
                    "indices" : 3,
                    "material" : 0
                },
                {
                    "attributes" : {
                        "POSITION" : 18,
                        "NORMAL" : 19,
                        "TEXCOORD_0" : 20
                    },
                    "indices" : 21,
                    "material" : 1
                }
            ]
        },
        {
            "name" : "Cylinder.029",
            "primitives" : [
                {
                    "attributes" : {
                        "POSITION" : 22,
                        "NORMAL" : 23,
                        "TEXCOORD_0" : 24
                    },
                    "indices" : 3,
                    "material" : 0
                },
                {
                    "attributes" : {
                        "POSITION" : 25,
                        "NORMAL" : 26,
                        "TEXCOORD_0" : 27
                    },
                    "indices" : 28,
                    "material" : 1
                }
            ]
        }
    ],
    "accessors" : [
        {
            "bufferView" : 0,
            "componentType" : 5126,
            "count" : 80,
            "max" : [
                1.1747031211853027,
                16.9350643157959,
                1.4549669027328491
            ],
            "min" : [
                -1.2074047327041626,
                -0.19040830433368683,
                -1.2582768201828003
            ],
            "type" : "VEC3"
        },
        {
            "bufferView" : 1,
            "componentType" : 5126,
            "count" : 80,
            "type" : "VEC3"
        },
        {
            "bufferView" : 2,
            "componentType" : 5126,
            "count" : 80,
            "type" : "VEC2"
        },
        {
            "bufferView" : 3,
            "componentType" : 5123,
            "count" : 132,
            "type" : "SCALAR"
        },
        {
            "bufferView" : 4,
            "componentType" : 5126,
            "count" : 1392,
            "max" : [
                6.095466136932373,
                29.60001564025879,
                6.313315391540527
            ],
            "min" : [
                -6.372164249420166,
                7.274649620056152,
                -6.078942775726318
            ],
            "type" : "VEC3"
        },
        {
            "bufferView" : 5,
            "componentType" : 5126,
            "count" : 1392,
            "type" : "VEC3"
        },
        {
            "bufferView" : 6,
            "componentType" : 5126,
            "count" : 1392,
            "type" : "VEC2"
        },
        {
            "bufferView" : 7,
            "componentType" : 5123,
            "count" : 2124,
            "type" : "SCALAR"
        },
        {
            "bufferView" : 8,
            "componentType" : 5126,
            "count" : 80,
            "max" : [
                1.1747031211853027,
                16.9350643157959,
                1.4549669027328491
            ],
            "min" : [
                -1.2074047327041626,
                -0.19040830433368683,
                -1.2582768201828003
            ],
            "type" : "VEC3"
        },
        {
            "bufferView" : 9,
            "componentType" : 5126,
            "count" : 80,
            "type" : "VEC3"
        },
        {
            "bufferView" : 10,
            "componentType" : 5126,
            "count" : 80,
            "type" : "VEC2"
        },
        {
            "bufferView" : 11,
            "componentType" : 5126,
            "count" : 1752,
            "max" : [
                5.676681995391846,
                26.348190307617188,
                5.880866050720215
            ],
            "min" : [
                -5.745494365692139,
                7.041892051696777,
                -5.734902858734131
            ],
            "type" : "VEC3"
        },
        {
            "bufferView" : 12,
            "componentType" : 5126,
            "count" : 1752,
            "type" : "VEC3"
        },
        {
            "bufferView" : 13,
            "componentType" : 5126,
            "count" : 1752,
            "type" : "VEC2"
        },
        {
            "bufferView" : 14,
            "componentType" : 5123,
            "count" : 2688,
            "type" : "SCALAR"
        },
        {
            "bufferView" : 15,
            "componentType" : 5126,
            "count" : 80,
            "max" : [
                1.1747031211853027,
                16.9350643157959,
                1.4549669027328491
            ],
            "min" : [
                -1.2074047327041626,
                -0.19040830433368683,
                -1.2582768201828003
            ],
            "type" : "VEC3"
        },
        {
            "bufferView" : 16,
            "componentType" : 5126,
            "count" : 80,
            "type" : "VEC3"
        },
        {
            "bufferView" : 17,
            "componentType" : 5126,
            "count" : 80,
            "type" : "VEC2"
        },
        {
            "bufferView" : 18,
            "componentType" : 5126,
            "count" : 2472,
            "max" : [
                6.905078411102295,
                36.712947845458984,
                6.933278560638428
            ],
            "min" : [
                -6.70852518081665,
                7.730067253112793,
                -6.778714656829834
            ],
            "type" : "VEC3"
        },
        {
            "bufferView" : 19,
            "componentType" : 5126,
            "count" : 2472,
            "type" : "VEC3"
        },
        {
            "bufferView" : 20,
            "componentType" : 5126,
            "count" : 2472,
            "type" : "VEC2"
        },
        {
            "bufferView" : 21,
            "componentType" : 5123,
            "count" : 3816,
            "type" : "SCALAR"
        },
        {
            "bufferView" : 22,
            "componentType" : 5126,
            "count" : 80,
            "max" : [
                1.1747031211853027,
                16.9350643157959,
                1.4549669027328491
            ],
            "min" : [
                -1.2074047327041626,
                -0.19040830433368683,
                -1.2582768201828003
            ],
            "type" : "VEC3"
        },
        {
            "bufferView" : 23,
            "componentType" : 5126,
            "count" : 80,
            "type" : "VEC3"
        },
        {
            "bufferView" : 24,
            "componentType" : 5126,
            "count" : 80,
            "type" : "VEC2"
        },
        {
            "bufferView" : 25,
            "componentType" : 5126,
            "count" : 1032,
            "max" : [
                5.384118556976318,
                24.443641662597656,
                5.413163661956787
            ],
            "min" : [
                -5.364948749542236,
                5.906285285949707,
                -5.160447120666504
            ],
            "type" : "VEC3"
        },
        {
            "bufferView" : 26,
            "componentType" : 5126,
            "count" : 1032,
            "type" : "VEC3"
        },
        {
            "bufferView" : 27,
            "componentType" : 5126,
            "count" : 1032,
            "type" : "VEC2"
        },
        {
            "bufferView" : 28,
            "componentType" : 5123,
            "count" : 1560,
            "type" : "SCALAR"
        }
    ],
    "bufferViews" : [
        {
            "buffer" : 0,
            "byteLength" : 960,
            "byteOffset" : 0
        },
        {
            "buffer" : 0,
            "byteLength" : 960,
            "byteOffset" : 960
        },
        {
            "buffer" : 0,
            "byteLength" : 640,
            "byteOffset" : 1920
        },
        {
            "buffer" : 0,
            "byteLength" : 264,
            "byteOffset" : 2560
        },
        {
            "buffer" : 0,
            "byteLength" : 16704,
            "byteOffset" : 2824
        },
        {
            "buffer" : 0,
            "byteLength" : 16704,
            "byteOffset" : 19528
        },
        {
            "buffer" : 0,
            "byteLength" : 11136,
            "byteOffset" : 36232
        },
        {
            "buffer" : 0,
            "byteLength" : 4248,
            "byteOffset" : 47368
        },
        {
            "buffer" : 0,
            "byteLength" : 960,
            "byteOffset" : 51616
        },
        {
            "buffer" : 0,
            "byteLength" : 960,
            "byteOffset" : 52576
        },
        {
            "buffer" : 0,
            "byteLength" : 640,
            "byteOffset" : 53536
        },
        {
            "buffer" : 0,
            "byteLength" : 21024,
            "byteOffset" : 54176
        },
        {
            "buffer" : 0,
            "byteLength" : 21024,
            "byteOffset" : 75200
        },
        {
            "buffer" : 0,
            "byteLength" : 14016,
            "byteOffset" : 96224
        },
        {
            "buffer" : 0,
            "byteLength" : 5376,
            "byteOffset" : 110240
        },
        {
            "buffer" : 0,
            "byteLength" : 960,
            "byteOffset" : 115616
        },
        {
            "buffer" : 0,
            "byteLength" : 960,
            "byteOffset" : 116576
        },
        {
            "buffer" : 0,
            "byteLength" : 640,
            "byteOffset" : 117536
        },
        {
            "buffer" : 0,
            "byteLength" : 29664,
            "byteOffset" : 118176
        },
        {
            "buffer" : 0,
            "byteLength" : 29664,
            "byteOffset" : 147840
        },
        {
            "buffer" : 0,
            "byteLength" : 19776,
            "byteOffset" : 177504
        },
        {
            "buffer" : 0,
            "byteLength" : 7632,
            "byteOffset" : 197280
        },
        {
            "buffer" : 0,
            "byteLength" : 960,
            "byteOffset" : 204912
        },
        {
            "buffer" : 0,
            "byteLength" : 960,
            "byteOffset" : 205872
        },
        {
            "buffer" : 0,
            "byteLength" : 640,
            "byteOffset" : 206832
        },
        {
            "buffer" : 0,
            "byteLength" : 12384,
            "byteOffset" : 207472
        },
        {
            "buffer" : 0,
            "byteLength" : 12384,
            "byteOffset" : 219856
        },
        {
            "buffer" : 0,
            "byteLength" : 8256,
            "byteOffset" : 232240
        },
        {
            "buffer" : 0,
            "byteLength" : 3120,
            "byteOffset" : 240496
        }
    ],
    "buffers" : [
        {
            "byteLength" : 243616,
            "uri" : "data:application/octet-stream;base64,"
        }
    ]
}
